<svg xmlns="http://www.w3.org/2000/svg" viewBox="0 0 1200 750" role="img" aria-labelledby="title desc"><title id="title">Peptides vs Retinoids: Build Accurate Age-Well Skincare Positioning</title><desc id="desc">INGREDIENT visual guide for Peptides vs Retinoids: Build Accurate Age-Well Skincare Positioning.</desc><defs><linearGradient id="bg" x1="0" y1="0" x2="1" y2="1"><stop stop-color="#e4ebf2"/><stop offset="1" stop-color="#fbfaf5"/></linearGradient></defs><style>.heading{font:700 47px Georgia,serif;fill:#25445c}.label{font:700 18px Arial,sans-serif;letter-spacing:2px;fill:#25445c}.small{font:20px Arial,sans-serif;fill:#5c6d62}.tiny{font:700 13px Arial,sans-serif;letter-spacing:2px;fill:#25445c}</style><rect width="1200" height="750" fill="url(#bg)"/><path d="M0 670Q228 588 429 672T835 653T1200 646V750H0Z" fill="#fff" opacity=".57"/><circle cx="1103" cy="100" r="206" fill="#81a996" opacity=".12"/><text x="72" y="107" class="label">AURVONX JOURNAL · INGREDIENTS</text><text x="72" y="164" class="small">INGREDIENT · PRODUCT DEVELOPMENT</text><text x="72" y="252" class="heading">Peptides vs Retinoids: Build</text><text x="72" y="310" class="heading">Accurate Age-Well Skincare</text><text x="72" y="368" class="heading">Positioning</text><path d="M72 488h575" stroke="#81a996" stroke-width="5"/><text x="72" y="546" class="small">A practical visual guide for brand buyers</text><text x="72" y="590" class="small">Review the brief, evidence and market fit</text><rect x="776" y="130" width="450" height="535" rx="22" fill="#fff" opacity=".55"/><g stroke="#25445c" stroke-width="7" opacity=".72"><path d="M834 256L966 206 1068 292 1015 408 875 405Z M966 206L1010 115 M1068 292L1145 262" fill="none"/><g fill="#81a996" stroke="#fff" stroke-width="5"><circle cx="834" cy="256" r="34"/><circle cx="966" cy="206" r="39"/><circle cx="1068" cy="292" r="32"/><circle cx="1015" cy="408" r="36"/><circle cx="875" cy="405" r="29"/><circle cx="1010" cy="115" r="26"/><circle cx="1145" cy="262" r="24"/></g></g><text x="820" y="500" class="label">INGREDIENT PROFILE</text><rect x="820" y="524" width="300" height="14" rx="7" fill="#fff"/><rect x="820" y="524" width="212" height="14" rx="7" fill="#81a996"/><text x="820" y="582" class="small">Identity · Compatibility · Evidence</text><text x="72" y="704" class="label" font-size="15">AURVONX · PRIVATE LABEL &amp; OEM / ODM</text></svg>