<svg xmlns="http://www.w3.org/2000/svg" viewBox="0 0 1200 750" role="img" aria-labelledby="title desc"><title id="title">Sulfate-Free Shampoo Buyer Brief: Questions Beyond the Front Label</title><desc id="desc">PACKAGING visual guide for Sulfate-Free Shampoo Buyer Brief: Questions Beyond the Front Label.</desc><defs><linearGradient id="bg" x1="0" y1="0" x2="1" y2="1"><stop stop-color="#f6e8dc"/><stop offset="1" stop-color="#fbfaf5"/></linearGradient></defs><style>.heading{font:700 47px Georgia,serif;fill:#704735}.label{font:700 18px Arial,sans-serif;letter-spacing:2px;fill:#704735}.small{font:20px Arial,sans-serif;fill:#5c6d62}.tiny{font:700 13px Arial,sans-serif;letter-spacing:2px;fill:#704735}</style><rect width="1200" height="750" fill="url(#bg)"/><path d="M0 670Q228 588 429 672T835 653T1200 646V750H0Z" fill="#fff" opacity=".57"/><circle cx="1103" cy="100" r="206" fill="#dd805e" opacity=".12"/><text x="72" y="107" class="label">AURVONX JOURNAL · HAIRCARE</text><text x="72" y="164" class="small">PACKAGING · PRODUCT DEVELOPMENT</text><text x="72" y="252" class="heading">Sulfate-Free Shampoo Buyer</text><text x="72" y="310" class="heading">Brief: Questions Beyond the</text><text x="72" y="368" class="heading">Front Label</text><path d="M72 488h575" stroke="#dd805e" stroke-width="5"/><text x="72" y="546" class="small">A practical visual guide for brand buyers</text><text x="72" y="590" class="small">Review the brief, evidence and market fit</text><rect x="776" y="130" width="450" height="535" rx="22" fill="#fff" opacity=".55"/><g stroke="#704735" stroke-width="5" fill="#fff"><path d="M810 262h94l15 258h-124z"/><rect x="833" y="220" width="48" height="42" rx="8" fill="#704735"/><rect x="956" y="300" width="115" height="218" rx="18"/><path d="M982 300v-35h63v35" fill="#704735"/><rect x="1102" y="352" width="92" height="166" rx="36"/><path d="M1122 352v-37h52v37" fill="#704735"/></g><path d="M818 386h82M972 385h83M1113 416h70" stroke="#dd805e" stroke-width="13"/><text x="822" y="579" class="label">PACK FORMAT STUDY</text><text x="822" y="619" class="small">Bottle · Jar · Tube · Dispensing</text><text x="72" y="704" class="label" font-size="15">AURVONX · PRIVATE LABEL &amp; OEM / ODM</text></svg>