<svg xmlns="http://www.w3.org/2000/svg" viewBox="0 0 1200 750" role="img" aria-labelledby="title desc"><title id="title">Private Label Beauty MOQ Planning for a First Market Test</title><desc id="desc">Editorial illustration for a private label beauty MOQ planning guide.</desc><defs><linearGradient id="bg" x1="0" y1="0" x2="1" y2="1"><stop stop-color="#f0e3d7"/><stop offset="1" stop-color="#f8f6ee"/></linearGradient></defs><rect width="1200" height="750" fill="url(#bg)"/><circle cx="1030" cy="125" r="210" fill="#1d493a" opacity=".13"/><path d="M0 620 Q220 530 430 635T820 620 1200 610V750H0Z" fill="#fff" opacity=".52"/><g><rect x="690" y="190" width="270" height="360" rx="14" fill="#fff" stroke="#8fa291" stroke-width="5"/><path d="M740 275h165M740 325h165M740 375h125M740 455h160" stroke="#b7c3b4" stroke-width="12"/><circle cx="820" cy="660" r="78" fill="#d7bd8c"/></g><g fill="none" stroke="#6d3f2d" opacity=".32" stroke-width="5"><path d="M65 555 C135 400 238 380 310 340 C274 454 201 531 65 555Z"/><path d="M160 526Q184 443 280 365"/><path d="M104 590C170 493 251 477 350 468"/></g><text x="72" y="94" fill="#6d3f2d" font-family="Arial,sans-serif" font-size="23" font-weight="700" letter-spacing="5">AURVONX JOURNAL · OEM</text><foreignObject x="72" y="145" width="570" height="430"><div xmlns="http://www.w3.org/1999/xhtml" style="font:700 48px/1.15 Georgia,serif;color:#6d3f2d;max-height:350px;overflow:hidden">Private Label Beauty MOQ Planning for a First Market Test</div></foreignObject><text x="72" y="690" fill="#627367" font-family="Arial,sans-serif" font-size="17" letter-spacing="2">PRODUCT BRIEF · FORMULA · PACKAGING · MARKET</text></svg>